<mxfile host="Electron" modified="2025-10-09T22:31:35.848Z" agent="Mozilla/5.0 (Windows NT 10.0; Win64; x64) AppleWebKit/537.36 (KHTML, like Gecko) draw.io/21.7.5 Chrome/114.0.5735.289 Electron/25.8.1 Safari/537.36" etag="pFd8eGaxK9pDTG4hW8mL" version="21.7.5" type="device">
  <diagram name="PÃ¡gina-1" id="QnJrrFheKJE07PtcOswO">
    <mxGraphModel dx="2747" dy="1147" grid="1" gridSize="10" guides="1" tooltips="1" connect="1" arrows="1" fold="1" page="1" pageScale="1" pageWidth="827" pageHeight="1169" math="0" shadow="0">
      <root>
        <mxCell id="0" />
        <mxCell id="1" parent="0" />
        <mxCell id="cx52iR73xByLYHe5iGXJ-10" style="edgeStyle=orthogonalEdgeStyle;rounded=0;orthogonalLoop=1;jettySize=auto;html=1;exitX=0.75;exitY=1;exitDx=0;exitDy=0;exitPerimeter=0;entryX=0.25;entryY=0;entryDx=0;entryDy=0;entryPerimeter=0;" parent="1" source="cx52iR73xByLYHe5iGXJ-1" target="cx52iR73xByLYHe5iGXJ-4" edge="1">
          <mxGeometry relative="1" as="geometry" />
        </mxCell>
        <mxCell id="cx52iR73xByLYHe5iGXJ-11" value="Autiorizacion" style="edgeLabel;html=1;align=center;verticalAlign=middle;resizable=0;points=[];" parent="cx52iR73xByLYHe5iGXJ-10" vertex="1" connectable="0">
          <mxGeometry x="-0.298" y="2" relative="1" as="geometry">
            <mxPoint x="-1" as="offset" />
          </mxGeometry>
        </mxCell>
        <mxCell id="cx52iR73xByLYHe5iGXJ-39" style="edgeStyle=orthogonalEdgeStyle;rounded=0;orthogonalLoop=1;jettySize=auto;html=1;exitX=1;exitY=0.75;exitDx=0;exitDy=0;exitPerimeter=0;fillColor=#60a917;strokeColor=#2D7600;" parent="1" source="cx52iR73xByLYHe5iGXJ-1" target="cx52iR73xByLYHe5iGXJ-4" edge="1">
          <mxGeometry relative="1" as="geometry" />
        </mxCell>
        <mxCell id="cx52iR73xByLYHe5iGXJ-40" value="interaccion&lt;br&gt;&amp;nbsp;de configuracion" style="edgeLabel;html=1;align=center;verticalAlign=middle;resizable=0;points=[];" parent="cx52iR73xByLYHe5iGXJ-39" vertex="1" connectable="0">
          <mxGeometry x="0.2911" y="-1" relative="1" as="geometry">
            <mxPoint as="offset" />
          </mxGeometry>
        </mxCell>
        <object placeholders="1" c4Name="User" c4Type="Person" c4Description="usuario" label="&lt;font style=&quot;font-size: 16px&quot;&gt;&lt;b&gt;%c4Name%&lt;/b&gt;&lt;/font&gt;&lt;div&gt;[%c4Type%]&lt;/div&gt;&lt;br&gt;&lt;div&gt;&lt;font style=&quot;font-size: 11px&quot;&gt;&lt;font color=&quot;#cccccc&quot;&gt;%c4Description%&lt;/font&gt;&lt;/div&gt;" id="cx52iR73xByLYHe5iGXJ-1">
          <mxCell style="html=1;fontSize=11;dashed=0;whiteSpace=wrap;fillColor=#083F75;strokeColor=#06315C;fontColor=#ffffff;shape=mxgraph.c4.person2;align=center;metaEdit=1;points=[[0.5,0,0],[1,0.5,0],[1,0.75,0],[0.75,1,0],[0.5,1,0],[0.25,1,0],[0,0.75,0],[0,0.5,0]];resizable=0;" parent="1" vertex="1">
            <mxGeometry x="170" width="200" height="180" as="geometry" />
          </mxCell>
        </object>
        <object placeholders="1" c4Name="Sitio Web" c4Type="systema de servicios" c4Application="Servicio web" label="&lt;font style=&quot;font-size: 16px&quot;&gt;&lt;b&gt;&lt;div style=&quot;text-align: left&quot;&gt;%c4Name%&lt;/div&gt;&lt;/b&gt;&lt;/font&gt;&lt;div style=&quot;text-align: left&quot;&gt;[%c4Application%]&lt;/div&gt;" id="cx52iR73xByLYHe5iGXJ-2">
          <mxCell style="rounded=1;fontSize=11;whiteSpace=wrap;html=1;dashed=1;arcSize=20;fillColor=none;strokeColor=#666666;fontColor=#333333;labelBackgroundColor=none;align=left;verticalAlign=bottom;labelBorderColor=none;spacingTop=0;spacing=10;dashPattern=8 4;metaEdit=1;rotatable=0;perimeter=rectanglePerimeter;noLabel=0;labelPadding=0;allowArrows=0;connectable=0;expand=0;recursiveResize=0;editable=1;pointerEvents=0;absoluteArcSize=1;points=[[0.25,0,0],[0.5,0,0],[0.75,0,0],[1,0.25,0],[1,0.5,0],[1,0.75,0],[0.75,1,0],[0.5,1,0],[0.25,1,0],[0,0.75,0],[0,0.5,0],[0,0.25,0]];" parent="1" vertex="1">
            <mxGeometry x="40" y="230" width="990" height="890" as="geometry" />
          </mxCell>
        </object>
        <mxCell id="cx52iR73xByLYHe5iGXJ-21" style="edgeStyle=orthogonalEdgeStyle;rounded=0;orthogonalLoop=1;jettySize=auto;html=1;exitX=1;exitY=0.25;exitDx=0;exitDy=0;exitPerimeter=0;entryX=0;entryY=0.25;entryDx=0;entryDy=0;entryPerimeter=0;" parent="1" source="cx52iR73xByLYHe5iGXJ-3" target="cx52iR73xByLYHe5iGXJ-8" edge="1">
          <mxGeometry relative="1" as="geometry">
            <Array as="points">
              <mxPoint x="1070" y="530" />
              <mxPoint x="1070" y="520" />
            </Array>
          </mxGeometry>
        </mxCell>
        <mxCell id="cx52iR73xByLYHe5iGXJ-26" style="edgeStyle=orthogonalEdgeStyle;rounded=0;orthogonalLoop=1;jettySize=auto;html=1;exitX=0.75;exitY=1;exitDx=0;exitDy=0;exitPerimeter=0;entryX=0.9;entryY=0;entryDx=0;entryDy=0;entryPerimeter=0;" parent="1" source="cx52iR73xByLYHe5iGXJ-3" target="cx52iR73xByLYHe5iGXJ-5" edge="1">
          <mxGeometry relative="1" as="geometry" />
        </mxCell>
        <mxCell id="cx52iR73xByLYHe5iGXJ-27" value="Sub autorizacion" style="edgeLabel;html=1;align=center;verticalAlign=middle;resizable=0;points=[];" parent="cx52iR73xByLYHe5iGXJ-26" vertex="1" connectable="0">
          <mxGeometry x="-0.1711" y="-1" relative="1" as="geometry">
            <mxPoint x="19" y="-18" as="offset" />
          </mxGeometry>
        </mxCell>
        <mxCell id="cx52iR73xByLYHe5iGXJ-35" style="edgeStyle=orthogonalEdgeStyle;rounded=0;orthogonalLoop=1;jettySize=auto;html=1;exitX=0.5;exitY=0;exitDx=0;exitDy=0;exitPerimeter=0;entryX=0.5;entryY=1;entryDx=0;entryDy=0;entryPerimeter=0;fillColor=#1ba1e2;strokeColor=#006EAF;" parent="1" source="cx52iR73xByLYHe5iGXJ-3" target="cx52iR73xByLYHe5iGXJ-4" edge="1">
          <mxGeometry relative="1" as="geometry" />
        </mxCell>
        <mxCell id="cx52iR73xByLYHe5iGXJ-36" value="Listas &lt;br&gt;Disponibles" style="edgeLabel;html=1;align=center;verticalAlign=middle;resizable=0;points=[];" parent="cx52iR73xByLYHe5iGXJ-35" vertex="1" connectable="0">
          <mxGeometry x="-0.0621" relative="1" as="geometry">
            <mxPoint y="9" as="offset" />
          </mxGeometry>
        </mxCell>
        <mxCell id="cx52iR73xByLYHe5iGXJ-44" style="edgeStyle=orthogonalEdgeStyle;rounded=0;orthogonalLoop=1;jettySize=auto;html=1;exitX=0.25;exitY=1;exitDx=0;exitDy=0;exitPerimeter=0;entryX=0.2;entryY=0;entryDx=0;entryDy=0;entryPerimeter=0;fillColor=#60a917;strokeColor=#2D7600;" parent="1" source="cx52iR73xByLYHe5iGXJ-3" target="cx52iR73xByLYHe5iGXJ-5" edge="1">
          <mxGeometry relative="1" as="geometry" />
        </mxCell>
        <mxCell id="cx52iR73xByLYHe5iGXJ-45" value="Configuracion" style="edgeLabel;html=1;align=center;verticalAlign=middle;resizable=0;points=[];" parent="cx52iR73xByLYHe5iGXJ-44" vertex="1" connectable="0">
          <mxGeometry x="0.1228" y="3" relative="1" as="geometry">
            <mxPoint x="-21" as="offset" />
          </mxGeometry>
        </mxCell>
        <mxCell id="0-llB7Le6B-mR33mn91j-15" style="edgeStyle=orthogonalEdgeStyle;rounded=0;orthogonalLoop=1;jettySize=auto;html=1;exitX=0.8;exitY=0;exitDx=0;exitDy=0;exitPerimeter=0;entryX=0.9;entryY=1;entryDx=0;entryDy=0;entryPerimeter=0;fillColor=#6a00ff;strokeColor=#3700CC;" edge="1" parent="1" source="cx52iR73xByLYHe5iGXJ-3" target="cx52iR73xByLYHe5iGXJ-4">
          <mxGeometry relative="1" as="geometry">
            <Array as="points">
              <mxPoint x="662" y="470" />
              <mxPoint x="700" y="470" />
              <mxPoint x="700" y="440" />
              <mxPoint x="690" y="440" />
              <mxPoint x="690" y="390" />
              <mxPoint x="676" y="390" />
            </Array>
          </mxGeometry>
        </mxCell>
        <mxCell id="0-llB7Le6B-mR33mn91j-16" value="Actualizacion&lt;br&gt;del&amp;nbsp;&lt;br&gt;proceso" style="edgeLabel;html=1;align=center;verticalAlign=middle;resizable=0;points=[];" vertex="1" connectable="0" parent="0-llB7Le6B-mR33mn91j-15">
          <mxGeometry x="0.0536" y="1" relative="1" as="geometry">
            <mxPoint as="offset" />
          </mxGeometry>
        </mxCell>
        <mxCell id="0-llB7Le6B-mR33mn91j-25" style="edgeStyle=orthogonalEdgeStyle;rounded=0;orthogonalLoop=1;jettySize=auto;html=1;exitX=0.4;exitY=0;exitDx=0;exitDy=0;exitPerimeter=0;entryX=0;entryY=0.75;entryDx=0;entryDy=0;entryPerimeter=0;fillColor=#e3c800;strokeColor=#B09500;" edge="1" parent="1" source="cx52iR73xByLYHe5iGXJ-3" target="cx52iR73xByLYHe5iGXJ-4">
          <mxGeometry relative="1" as="geometry">
            <Array as="points">
              <mxPoint x="566" y="450" />
              <mxPoint x="440" y="450" />
              <mxPoint x="440" y="330" />
            </Array>
          </mxGeometry>
        </mxCell>
        <mxCell id="0-llB7Le6B-mR33mn91j-26" value="DONE" style="edgeLabel;html=1;align=center;verticalAlign=middle;resizable=0;points=[];" vertex="1" connectable="0" parent="0-llB7Le6B-mR33mn91j-25">
          <mxGeometry x="0.152" y="-1" relative="1" as="geometry">
            <mxPoint as="offset" />
          </mxGeometry>
        </mxCell>
        <mxCell id="0-llB7Le6B-mR33mn91j-35" style="edgeStyle=orthogonalEdgeStyle;rounded=0;orthogonalLoop=1;jettySize=auto;html=1;exitX=0;exitY=0.5;exitDx=0;exitDy=0;exitPerimeter=0;fillColor=#a0522d;strokeColor=#6D1F00;" edge="1" parent="1" source="cx52iR73xByLYHe5iGXJ-3" target="cx52iR73xByLYHe5iGXJ-6">
          <mxGeometry relative="1" as="geometry" />
        </mxCell>
        <mxCell id="0-llB7Le6B-mR33mn91j-36" value="Prompt del usuario" style="edgeLabel;html=1;align=center;verticalAlign=middle;resizable=0;points=[];" vertex="1" connectable="0" parent="0-llB7Le6B-mR33mn91j-35">
          <mxGeometry x="-0.1" y="1" relative="1" as="geometry">
            <mxPoint as="offset" />
          </mxGeometry>
        </mxCell>
        <object placeholders="1" c4Name="Backend" c4Type="server " c4Description="Contenendor de kubernetes que hara las de servidor que cumplira la funcion de backend" label="&lt;font style=&quot;font-size: 16px&quot;&gt;&lt;b&gt;%c4Name%&lt;/b&gt;&lt;/font&gt;&lt;div&gt;[%c4Type%]&lt;/div&gt;&lt;br&gt;&lt;div&gt;&lt;font style=&quot;font-size: 11px&quot;&gt;&lt;font color=&quot;#cccccc&quot;&gt;%c4Description%&lt;/font&gt;&lt;/div&gt;" id="cx52iR73xByLYHe5iGXJ-3">
          <mxCell style="rounded=1;whiteSpace=wrap;html=1;labelBackgroundColor=none;fillColor=#1061B0;fontColor=#ffffff;align=center;arcSize=10;strokeColor=#0D5091;metaEdit=1;resizable=0;points=[[0,0.25,0,0,0],[0,0.5,0,0,0],[0,0.75,0,0,0],[0.2,0,0,0,0],[0.25,0,0,0,0],[0.25,1,0,0,0],[0.35,1,0,0,0],[0.4,0,0,0,0],[0.5,0,0,0,0],[0.5,1,0,0,0],[0.6,0,0,0,0],[0.75,0,0,0,0],[0.75,1,0,0,0],[0.8,0,0,0,0],[1,0.25,0,0,0],[1,0.5,0,0,0],[1,0.75,0,0,0]];" parent="1" vertex="1">
            <mxGeometry x="470" y="480" width="240" height="120" as="geometry" />
          </mxCell>
        </object>
        <mxCell id="cx52iR73xByLYHe5iGXJ-13" style="edgeStyle=orthogonalEdgeStyle;rounded=0;orthogonalLoop=1;jettySize=auto;html=1;exitX=0.25;exitY=1;exitDx=0;exitDy=0;exitPerimeter=0;entryX=0.25;entryY=0;entryDx=0;entryDy=0;entryPerimeter=0;" parent="1" source="cx52iR73xByLYHe5iGXJ-4" target="cx52iR73xByLYHe5iGXJ-3" edge="1">
          <mxGeometry relative="1" as="geometry" />
        </mxCell>
        <mxCell id="cx52iR73xByLYHe5iGXJ-14" value="Autiorizacion" style="edgeLabel;html=1;align=center;verticalAlign=middle;resizable=0;points=[];" parent="cx52iR73xByLYHe5iGXJ-13" vertex="1" connectable="0">
          <mxGeometry x="-0.1467" relative="1" as="geometry">
            <mxPoint as="offset" />
          </mxGeometry>
        </mxCell>
        <mxCell id="cx52iR73xByLYHe5iGXJ-37" style="edgeStyle=orthogonalEdgeStyle;rounded=0;orthogonalLoop=1;jettySize=auto;html=1;exitX=0.75;exitY=0;exitDx=0;exitDy=0;exitPerimeter=0;entryX=1;entryY=0.5;entryDx=0;entryDy=0;entryPerimeter=0;fillColor=#1ba1e2;strokeColor=#006EAF;" parent="1" source="cx52iR73xByLYHe5iGXJ-4" target="cx52iR73xByLYHe5iGXJ-1" edge="1">
          <mxGeometry relative="1" as="geometry" />
        </mxCell>
        <mxCell id="cx52iR73xByLYHe5iGXJ-38" value="Listas disponibles" style="edgeLabel;html=1;align=center;verticalAlign=middle;resizable=0;points=[];" parent="cx52iR73xByLYHe5iGXJ-37" vertex="1" connectable="0">
          <mxGeometry x="0.0549" relative="1" as="geometry">
            <mxPoint as="offset" />
          </mxGeometry>
        </mxCell>
        <mxCell id="cx52iR73xByLYHe5iGXJ-41" style="edgeStyle=orthogonalEdgeStyle;rounded=0;orthogonalLoop=1;jettySize=auto;html=1;exitX=0.75;exitY=1;exitDx=0;exitDy=0;exitPerimeter=0;entryX=0.75;entryY=0;entryDx=0;entryDy=0;entryPerimeter=0;fillColor=#60a917;strokeColor=#2D7600;" parent="1" source="cx52iR73xByLYHe5iGXJ-4" target="cx52iR73xByLYHe5iGXJ-3" edge="1">
          <mxGeometry relative="1" as="geometry" />
        </mxCell>
        <mxCell id="cx52iR73xByLYHe5iGXJ-42" value="Configuracion" style="edgeLabel;html=1;align=center;verticalAlign=middle;resizable=0;points=[];" parent="cx52iR73xByLYHe5iGXJ-41" vertex="1" connectable="0">
          <mxGeometry y="2" relative="1" as="geometry">
            <mxPoint x="-15" y="-28" as="offset" />
          </mxGeometry>
        </mxCell>
        <object placeholders="1" c4Name="FRONTED" c4Type="Software System" c4Description="interfaz de usuario" label="&lt;font style=&quot;font-size: 16px&quot;&gt;&lt;b&gt;%c4Name%&lt;/b&gt;&lt;/font&gt;&lt;div&gt;[%c4Type%]&lt;/div&gt;&lt;br&gt;&lt;div&gt;&lt;font style=&quot;font-size: 11px&quot;&gt;&lt;font color=&quot;#cccccc&quot;&gt;%c4Description%&lt;/font&gt;&lt;/div&gt;" id="cx52iR73xByLYHe5iGXJ-4">
          <mxCell style="rounded=1;whiteSpace=wrap;html=1;labelBackgroundColor=none;fillColor=#1061B0;fontColor=#ffffff;align=center;arcSize=10;strokeColor=#0D5091;metaEdit=1;resizable=0;points=[[0,0.25,0,0,0],[0,0.5,0,0,0],[0,0.75,0,0,0],[0.25,0,0,0,0],[0.25,1,0,0,0],[0.5,0,0,0,0],[0.5,1,0,0,0],[0.75,0,0,0,0],[0.75,1,0,0,0],[0.9,0,0,0,0],[0.9,1,0,0,0],[1,0.25,0,0,0],[1,0.5,0,0,0],[1,0.75,0,0,0]];" parent="1" vertex="1">
            <mxGeometry x="460" y="240" width="240" height="120" as="geometry" />
          </mxCell>
        </object>
        <mxCell id="cx52iR73xByLYHe5iGXJ-29" style="edgeStyle=orthogonalEdgeStyle;rounded=0;orthogonalLoop=1;jettySize=auto;html=1;exitX=1;exitY=0.05;exitDx=0;exitDy=0;exitPerimeter=0;entryX=0.25;entryY=1;entryDx=0;entryDy=0;entryPerimeter=0;fillColor=#1ba1e2;strokeColor=#006EAF;" parent="1" source="cx52iR73xByLYHe5iGXJ-5" target="cx52iR73xByLYHe5iGXJ-9" edge="1">
          <mxGeometry relative="1" as="geometry">
            <Array as="points">
              <mxPoint x="840" y="716" />
              <mxPoint x="840" y="445" />
              <mxPoint x="750" y="445" />
            </Array>
          </mxGeometry>
        </mxCell>
        <mxCell id="cx52iR73xByLYHe5iGXJ-30" value="Solicitud&lt;br&gt;&amp;nbsp;de&lt;br&gt;&amp;nbsp;listas" style="edgeLabel;html=1;align=center;verticalAlign=middle;resizable=0;points=[];" parent="cx52iR73xByLYHe5iGXJ-29" vertex="1" connectable="0">
          <mxGeometry x="0.2364" relative="1" as="geometry">
            <mxPoint as="offset" />
          </mxGeometry>
        </mxCell>
        <mxCell id="cx52iR73xByLYHe5iGXJ-33" style="edgeStyle=orthogonalEdgeStyle;rounded=0;orthogonalLoop=1;jettySize=auto;html=1;exitX=0.4;exitY=0;exitDx=0;exitDy=0;exitPerimeter=0;entryX=0.5;entryY=1;entryDx=0;entryDy=0;entryPerimeter=0;fillColor=#1ba1e2;strokeColor=#006EAF;" parent="1" source="cx52iR73xByLYHe5iGXJ-5" target="cx52iR73xByLYHe5iGXJ-3" edge="1">
          <mxGeometry relative="1" as="geometry">
            <Array as="points">
              <mxPoint x="580" y="710" />
              <mxPoint x="580" y="670" />
              <mxPoint x="590" y="670" />
            </Array>
          </mxGeometry>
        </mxCell>
        <mxCell id="cx52iR73xByLYHe5iGXJ-34" value="listas &lt;br&gt;disponibles" style="edgeLabel;html=1;align=center;verticalAlign=middle;resizable=0;points=[];" parent="cx52iR73xByLYHe5iGXJ-33" vertex="1" connectable="0">
          <mxGeometry x="-0.1135" relative="1" as="geometry">
            <mxPoint x="-6" y="-50" as="offset" />
          </mxGeometry>
        </mxCell>
        <mxCell id="cx52iR73xByLYHe5iGXJ-46" style="edgeStyle=orthogonalEdgeStyle;rounded=0;orthogonalLoop=1;jettySize=auto;html=1;entryX=0;entryY=0.25;entryDx=0;entryDy=0;entryPerimeter=0;fillColor=#1ba1e2;strokeColor=#006EAF;" parent="1" target="cx52iR73xByLYHe5iGXJ-7" edge="1">
          <mxGeometry relative="1" as="geometry">
            <mxPoint x="750" y="740" as="sourcePoint" />
            <Array as="points">
              <mxPoint x="950" y="740" />
              <mxPoint x="950" y="320" />
            </Array>
          </mxGeometry>
        </mxCell>
        <mxCell id="cx52iR73xByLYHe5iGXJ-47" style="edgeStyle=orthogonalEdgeStyle;rounded=0;orthogonalLoop=1;jettySize=auto;html=1;entryX=0;entryY=0.75;entryDx=0;entryDy=0;entryPerimeter=0;fillColor=#1ba1e2;strokeColor=#006EAF;exitX=1;exitY=0.25;exitDx=0;exitDy=0;exitPerimeter=0;" parent="1" source="cx52iR73xByLYHe5iGXJ-5" target="cx52iR73xByLYHe5iGXJ-8" edge="1">
          <mxGeometry relative="1" as="geometry">
            <mxPoint x="730" y="740" as="sourcePoint" />
            <Array as="points">
              <mxPoint x="950" y="740" />
              <mxPoint x="950" y="580" />
            </Array>
          </mxGeometry>
        </mxCell>
        <mxCell id="cx52iR73xByLYHe5iGXJ-48" value="solicitud de listas" style="edgeLabel;html=1;align=center;verticalAlign=middle;resizable=0;points=[];" parent="cx52iR73xByLYHe5iGXJ-47" vertex="1" connectable="0">
          <mxGeometry x="-0.0471" y="-1" relative="1" as="geometry">
            <mxPoint y="-50" as="offset" />
          </mxGeometry>
        </mxCell>
        <mxCell id="cx52iR73xByLYHe5iGXJ-52" style="edgeStyle=orthogonalEdgeStyle;rounded=0;orthogonalLoop=1;jettySize=auto;html=1;exitX=1;exitY=0.45;exitDx=0;exitDy=0;exitPerimeter=0;entryX=0.75;entryY=1;entryDx=0;entryDy=0;entryPerimeter=0;fillColor=#d80073;strokeColor=#A50040;" parent="1" source="cx52iR73xByLYHe5iGXJ-5" target="cx52iR73xByLYHe5iGXJ-8" edge="1">
          <mxGeometry relative="1" as="geometry" />
        </mxCell>
        <mxCell id="cx52iR73xByLYHe5iGXJ-53" style="edgeStyle=orthogonalEdgeStyle;rounded=0;orthogonalLoop=1;jettySize=auto;html=1;exitX=1;exitY=0.45;exitDx=0;exitDy=0;exitPerimeter=0;entryX=0.75;entryY=1;entryDx=0;entryDy=0;entryPerimeter=0;fillColor=#d80073;strokeColor=#A50040;" parent="1" source="cx52iR73xByLYHe5iGXJ-5" target="cx52iR73xByLYHe5iGXJ-7" edge="1">
          <mxGeometry relative="1" as="geometry">
            <Array as="points">
              <mxPoint x="1350" y="764" />
              <mxPoint x="1350" y="440" />
              <mxPoint x="1270" y="440" />
            </Array>
          </mxGeometry>
        </mxCell>
        <mxCell id="cx52iR73xByLYHe5iGXJ-54" value="solicitud list content" style="edgeLabel;html=1;align=center;verticalAlign=middle;resizable=0;points=[];" parent="cx52iR73xByLYHe5iGXJ-53" vertex="1" connectable="0">
          <mxGeometry x="-0.3503" y="-2" relative="1" as="geometry">
            <mxPoint x="212" y="-6" as="offset" />
          </mxGeometry>
        </mxCell>
        <mxCell id="cx52iR73xByLYHe5iGXJ-58" style="edgeStyle=orthogonalEdgeStyle;rounded=0;orthogonalLoop=1;jettySize=auto;html=1;exitX=0.3;exitY=1;exitDx=0;exitDy=0;exitPerimeter=0;entryX=0.2;entryY=0;entryDx=0;entryDy=0;entryPerimeter=0;fillColor=#1ba1e2;strokeColor=#006EAF;" parent="1" source="cx52iR73xByLYHe5iGXJ-5" target="cx52iR73xByLYHe5iGXJ-28" edge="1">
          <mxGeometry relative="1" as="geometry" />
        </mxCell>
        <mxCell id="cx52iR73xByLYHe5iGXJ-60" value="listas&lt;br&gt;&amp;nbsp;User" style="edgeLabel;html=1;align=center;verticalAlign=middle;resizable=0;points=[];" parent="cx52iR73xByLYHe5iGXJ-58" vertex="1" connectable="0">
          <mxGeometry x="-0.2267" y="1" relative="1" as="geometry">
            <mxPoint y="-2" as="offset" />
          </mxGeometry>
        </mxCell>
        <mxCell id="cx52iR73xByLYHe5iGXJ-59" style="edgeStyle=orthogonalEdgeStyle;rounded=0;orthogonalLoop=1;jettySize=auto;html=1;exitX=0.1;exitY=1;exitDx=0;exitDy=0;exitPerimeter=0;entryX=0.1;entryY=0;entryDx=0;entryDy=0;entryPerimeter=0;fillColor=#d80073;strokeColor=#A50040;" parent="1" source="cx52iR73xByLYHe5iGXJ-5" target="cx52iR73xByLYHe5iGXJ-28" edge="1">
          <mxGeometry relative="1" as="geometry" />
        </mxCell>
        <mxCell id="cx52iR73xByLYHe5iGXJ-61" value="Listas &lt;br&gt;Plataforma" style="edgeLabel;html=1;align=center;verticalAlign=middle;resizable=0;points=[];" parent="cx52iR73xByLYHe5iGXJ-59" vertex="1" connectable="0">
          <mxGeometry x="0.3449" y="-3" relative="1" as="geometry">
            <mxPoint x="-21" y="-17" as="offset" />
          </mxGeometry>
        </mxCell>
        <mxCell id="0-llB7Le6B-mR33mn91j-3" style="edgeStyle=orthogonalEdgeStyle;rounded=0;orthogonalLoop=1;jettySize=auto;html=1;exitX=0.8;exitY=1;exitDx=0;exitDy=0;exitPerimeter=0;entryX=0.7;entryY=0;entryDx=0;entryDy=0;entryPerimeter=0;fillColor=#6a00ff;strokeColor=#3700CC;" edge="1" parent="1" source="cx52iR73xByLYHe5iGXJ-5" target="cx52iR73xByLYHe5iGXJ-28">
          <mxGeometry relative="1" as="geometry" />
        </mxCell>
        <mxCell id="0-llB7Le6B-mR33mn91j-4" value="correlacion" style="edgeLabel;html=1;align=center;verticalAlign=middle;resizable=0;points=[];" vertex="1" connectable="0" parent="0-llB7Le6B-mR33mn91j-3">
          <mxGeometry x="0.4037" y="-1" relative="1" as="geometry">
            <mxPoint x="3" y="5" as="offset" />
          </mxGeometry>
        </mxCell>
        <mxCell id="0-llB7Le6B-mR33mn91j-6" style="edgeStyle=orthogonalEdgeStyle;rounded=0;orthogonalLoop=1;jettySize=auto;html=1;exitX=1;exitY=0.65;exitDx=0;exitDy=0;exitPerimeter=0;entryX=1;entryY=0.75;entryDx=0;entryDy=0;entryPerimeter=0;fillColor=#6a00ff;strokeColor=#3700CC;" edge="1" parent="1" source="cx52iR73xByLYHe5iGXJ-5" target="cx52iR73xByLYHe5iGXJ-7">
          <mxGeometry relative="1" as="geometry">
            <mxPoint x="920" y="800" as="targetPoint" />
            <Array as="points">
              <mxPoint x="1390" y="788" />
              <mxPoint x="1390" y="380" />
            </Array>
          </mxGeometry>
        </mxCell>
        <mxCell id="0-llB7Le6B-mR33mn91j-7" style="edgeStyle=orthogonalEdgeStyle;rounded=0;orthogonalLoop=1;jettySize=auto;html=1;exitX=1;exitY=0.65;exitDx=0;exitDy=0;exitPerimeter=0;entryX=1;entryY=0.75;entryDx=0;entryDy=0;entryPerimeter=0;fillColor=#6a00ff;strokeColor=#3700CC;" edge="1" parent="1" source="cx52iR73xByLYHe5iGXJ-5" target="cx52iR73xByLYHe5iGXJ-8">
          <mxGeometry relative="1" as="geometry">
            <mxPoint x="950" y="800" as="targetPoint" />
            <Array as="points">
              <mxPoint x="1390" y="788" />
              <mxPoint x="1390" y="580" />
            </Array>
          </mxGeometry>
        </mxCell>
        <mxCell id="0-llB7Le6B-mR33mn91j-8" value="Solicitud de datos de una cancion concreta" style="edgeLabel;html=1;align=center;verticalAlign=middle;resizable=0;points=[];" vertex="1" connectable="0" parent="0-llB7Le6B-mR33mn91j-7">
          <mxGeometry x="0.1593" y="-1" relative="1" as="geometry">
            <mxPoint as="offset" />
          </mxGeometry>
        </mxCell>
        <mxCell id="0-llB7Le6B-mR33mn91j-12" style="edgeStyle=orthogonalEdgeStyle;rounded=0;orthogonalLoop=1;jettySize=auto;html=1;exitX=0.7;exitY=0;exitDx=0;exitDy=0;exitPerimeter=0;entryX=0.673;entryY=0.992;entryDx=0;entryDy=0;entryPerimeter=0;fillColor=#6a00ff;strokeColor=#3700CC;" edge="1" parent="1" source="cx52iR73xByLYHe5iGXJ-5" target="cx52iR73xByLYHe5iGXJ-3">
          <mxGeometry relative="1" as="geometry" />
        </mxCell>
        <mxCell id="0-llB7Le6B-mR33mn91j-13" value="Actualizacion&lt;br&gt;de&amp;nbsp;&lt;br&gt;correlacion" style="edgeLabel;html=1;align=center;verticalAlign=middle;resizable=0;points=[];" vertex="1" connectable="0" parent="0-llB7Le6B-mR33mn91j-12">
          <mxGeometry x="-0.3771" y="-2" relative="1" as="geometry">
            <mxPoint as="offset" />
          </mxGeometry>
        </mxCell>
        <mxCell id="0-llB7Le6B-mR33mn91j-17" style="edgeStyle=orthogonalEdgeStyle;rounded=0;orthogonalLoop=1;jettySize=auto;html=1;exitX=1;exitY=0.85;exitDx=0;exitDy=0;exitPerimeter=0;fillColor=#e3c800;strokeColor=#B09500;entryX=1;entryY=0.5;entryDx=0;entryDy=0;entryPerimeter=0;" edge="1" parent="1" source="cx52iR73xByLYHe5iGXJ-5" target="cx52iR73xByLYHe5iGXJ-8">
          <mxGeometry relative="1" as="geometry">
            <mxPoint x="860" y="820" as="targetPoint" />
            <Array as="points">
              <mxPoint x="1620" y="812" />
              <mxPoint x="1620" y="550" />
            </Array>
          </mxGeometry>
        </mxCell>
        <mxCell id="0-llB7Le6B-mR33mn91j-18" style="edgeStyle=orthogonalEdgeStyle;rounded=0;orthogonalLoop=1;jettySize=auto;html=1;exitX=1;exitY=0.85;exitDx=0;exitDy=0;exitPerimeter=0;entryX=1;entryY=0.25;entryDx=0;entryDy=0;entryPerimeter=0;fillColor=#e3c800;strokeColor=#B09500;" edge="1" parent="1" source="cx52iR73xByLYHe5iGXJ-5" target="cx52iR73xByLYHe5iGXJ-7">
          <mxGeometry relative="1" as="geometry">
            <Array as="points">
              <mxPoint x="1620" y="812" />
              <mxPoint x="1620" y="320" />
            </Array>
          </mxGeometry>
        </mxCell>
        <mxCell id="0-llB7Le6B-mR33mn91j-19" value="Actualizacion&amp;nbsp;&lt;br&gt;de las&lt;br&gt;listas" style="edgeLabel;html=1;align=center;verticalAlign=middle;resizable=0;points=[];" vertex="1" connectable="0" parent="0-llB7Le6B-mR33mn91j-18">
          <mxGeometry x="0.2156" y="1" relative="1" as="geometry">
            <mxPoint y="1" as="offset" />
          </mxGeometry>
        </mxCell>
        <mxCell id="0-llB7Le6B-mR33mn91j-23" style="edgeStyle=orthogonalEdgeStyle;rounded=0;orthogonalLoop=1;jettySize=auto;html=1;exitX=0.4;exitY=0;exitDx=0;exitDy=0;exitPerimeter=0;entryX=0.35;entryY=1;entryDx=0;entryDy=0;entryPerimeter=0;fillColor=#e3c800;strokeColor=#B09500;" edge="1" parent="1" source="cx52iR73xByLYHe5iGXJ-5" target="cx52iR73xByLYHe5iGXJ-3">
          <mxGeometry relative="1" as="geometry">
            <mxPoint x="556.25" y="640" as="targetPoint" />
          </mxGeometry>
        </mxCell>
        <mxCell id="0-llB7Le6B-mR33mn91j-24" value="DONE" style="edgeLabel;html=1;align=center;verticalAlign=middle;resizable=0;points=[];" vertex="1" connectable="0" parent="0-llB7Le6B-mR33mn91j-23">
          <mxGeometry x="-0.1786" relative="1" as="geometry">
            <mxPoint as="offset" />
          </mxGeometry>
        </mxCell>
        <mxCell id="0-llB7Le6B-mR33mn91j-27" style="edgeStyle=orthogonalEdgeStyle;rounded=0;orthogonalLoop=1;jettySize=auto;html=1;exitX=0.5;exitY=1;exitDx=0;exitDy=0;exitPerimeter=0;entryX=0.4;entryY=0;entryDx=0;entryDy=0;entryPerimeter=0;fillColor=#e3c800;strokeColor=#B09500;" edge="1" parent="1" source="cx52iR73xByLYHe5iGXJ-5" target="cx52iR73xByLYHe5iGXJ-28">
          <mxGeometry relative="1" as="geometry" />
        </mxCell>
        <mxCell id="0-llB7Le6B-mR33mn91j-28" value="DELETE" style="edgeLabel;html=1;align=center;verticalAlign=middle;resizable=0;points=[];" vertex="1" connectable="0" parent="0-llB7Le6B-mR33mn91j-27">
          <mxGeometry x="-0.141" relative="1" as="geometry">
            <mxPoint y="-16" as="offset" />
          </mxGeometry>
        </mxCell>
        <mxCell id="0-llB7Le6B-mR33mn91j-31" style="edgeStyle=orthogonalEdgeStyle;rounded=0;orthogonalLoop=1;jettySize=auto;html=1;exitX=1;exitY=0;exitDx=0;exitDy=0;exitPerimeter=0;entryX=0.518;entryY=1.025;entryDx=0;entryDy=0;entryPerimeter=0;fillColor=#e3c800;strokeColor=#B09500;" edge="1" parent="1" source="cx52iR73xByLYHe5iGXJ-5" target="cx52iR73xByLYHe5iGXJ-9">
          <mxGeometry relative="1" as="geometry">
            <Array as="points">
              <mxPoint x="890" y="710" />
              <mxPoint x="890" y="360" />
              <mxPoint x="814" y="360" />
            </Array>
          </mxGeometry>
        </mxCell>
        <mxCell id="0-llB7Le6B-mR33mn91j-32" value="reforme de metadatos" style="edgeLabel;html=1;align=center;verticalAlign=middle;resizable=0;points=[];" vertex="1" connectable="0" parent="0-llB7Le6B-mR33mn91j-31">
          <mxGeometry x="0.4799" y="1" relative="1" as="geometry">
            <mxPoint as="offset" />
          </mxGeometry>
        </mxCell>
        <mxCell id="0-llB7Le6B-mR33mn91j-39" style="edgeStyle=orthogonalEdgeStyle;rounded=0;orthogonalLoop=1;jettySize=auto;html=1;exitX=0;exitY=0.5;exitDx=0;exitDy=0;exitPerimeter=0;entryX=1;entryY=0.75;entryDx=0;entryDy=0;entryPerimeter=0;dashed=1;fillColor=#a0522d;strokeColor=#6D1F00;" edge="1" parent="1" source="cx52iR73xByLYHe5iGXJ-5" target="cx52iR73xByLYHe5iGXJ-6">
          <mxGeometry relative="1" as="geometry">
            <Array as="points">
              <mxPoint x="370" y="770" />
              <mxPoint x="370" y="700" />
            </Array>
          </mxGeometry>
        </mxCell>
        <mxCell id="0-llB7Le6B-mR33mn91j-43" value="Respuesta&lt;br&gt;&amp;nbsp;sobre &lt;br&gt;el proceso" style="edgeLabel;html=1;align=center;verticalAlign=middle;resizable=0;points=[];" vertex="1" connectable="0" parent="0-llB7Le6B-mR33mn91j-39">
          <mxGeometry x="-0.2316" y="-2" relative="1" as="geometry">
            <mxPoint as="offset" />
          </mxGeometry>
        </mxCell>
        <object placeholders="1" c4Name="Worker" c4Type="server worker" c4Description="servidor de la logica de negocio &#xa;&#xa;compuesto por un contenedor que se encargara del servicio" label="&lt;font style=&quot;font-size: 16px&quot;&gt;&lt;b&gt;%c4Name%&lt;/b&gt;&lt;/font&gt;&lt;div&gt;[%c4Type%]&lt;/div&gt;&lt;br&gt;&lt;div&gt;&lt;font style=&quot;font-size: 11px&quot;&gt;&lt;font color=&quot;#cccccc&quot;&gt;%c4Description%&lt;/font&gt;&lt;/div&gt;" id="cx52iR73xByLYHe5iGXJ-5">
          <mxCell style="rounded=1;whiteSpace=wrap;html=1;labelBackgroundColor=none;fillColor=#1061B0;fontColor=#ffffff;align=center;arcSize=10;strokeColor=#0D5091;metaEdit=1;resizable=0;points=[[0,0.25,0,0,0],[0,0.5,0,0,0],[0,0.75,0,0,0],[0.1,0,0,0,0],[0.1,1,0,0,0],[0.2,0,0,0,0],[0.2,1,0,0,0],[0.3,0,0,0,0],[0.3,1,0,0,0],[0.4,0,0,0,0],[0.4,1,0,0,0],[0.5,0,0,0,0],[0.5,1,0,0,0],[0.6,0,0,0,0],[0.6,1,0,0,0],[0.7,0,0,0,0],[0.7,1,0,0,0],[0.8,0,0,0,0],[0.8,1,0,0,0],[0.9,0,0,0,0],[0.9,1,0,0,0],[1,0,0,0,0],[1,0.05,0,0,0],[1,0.15,0,0,0],[1,0.25,0,0,0],[1,0.35,0,0,0],[1,0.45,0,0,0],[1,0.55,0,0,0],[1,0.56,0,0,0],[1,0.65,0,0,0],[1,0.75,0,0,0],[1,0.85,0,0,0],[1,0.95,0,0,0]];" parent="1" vertex="1">
            <mxGeometry x="460" y="710" width="240" height="120" as="geometry" />
          </mxCell>
        </object>
        <mxCell id="0-llB7Le6B-mR33mn91j-33" style="edgeStyle=orthogonalEdgeStyle;rounded=0;orthogonalLoop=1;jettySize=auto;html=1;exitX=0.75;exitY=0;exitDx=0;exitDy=0;exitPerimeter=0;entryX=0;entryY=0.75;entryDx=0;entryDy=0;entryPerimeter=0;dashed=1;fillColor=#a0522d;strokeColor=#6D1F00;" edge="1" parent="1" source="cx52iR73xByLYHe5iGXJ-6" target="cx52iR73xByLYHe5iGXJ-3">
          <mxGeometry relative="1" as="geometry" />
        </mxCell>
        <mxCell id="0-llB7Le6B-mR33mn91j-37" value="Respuesta de la IA" style="edgeLabel;html=1;align=center;verticalAlign=middle;resizable=0;points=[];" vertex="1" connectable="0" parent="0-llB7Le6B-mR33mn91j-33">
          <mxGeometry x="-0.2348" y="-5" relative="1" as="geometry">
            <mxPoint as="offset" />
          </mxGeometry>
        </mxCell>
        <mxCell id="0-llB7Le6B-mR33mn91j-38" style="edgeStyle=orthogonalEdgeStyle;rounded=0;orthogonalLoop=1;jettySize=auto;html=1;exitX=1;exitY=0.5;exitDx=0;exitDy=0;exitPerimeter=0;entryX=0;entryY=0.25;entryDx=0;entryDy=0;entryPerimeter=0;fillColor=#a0522d;strokeColor=#6D1F00;" edge="1" parent="1" source="cx52iR73xByLYHe5iGXJ-6" target="cx52iR73xByLYHe5iGXJ-5">
          <mxGeometry relative="1" as="geometry" />
        </mxCell>
        <mxCell id="0-llB7Le6B-mR33mn91j-42" value="Consulta&lt;br&gt;sobre el&amp;nbsp;&lt;br&gt;proceso" style="edgeLabel;html=1;align=center;verticalAlign=middle;resizable=0;points=[];" vertex="1" connectable="0" parent="0-llB7Le6B-mR33mn91j-38">
          <mxGeometry x="-0.0421" y="-1" relative="1" as="geometry">
            <mxPoint as="offset" />
          </mxGeometry>
        </mxCell>
        <mxCell id="0-llB7Le6B-mR33mn91j-41" style="edgeStyle=orthogonalEdgeStyle;rounded=0;orthogonalLoop=1;jettySize=auto;html=1;exitX=0.5;exitY=1;exitDx=0;exitDy=0;exitPerimeter=0;entryX=0;entryY=0.75;entryDx=0;entryDy=0;entryPerimeter=0;fillColor=#a0522d;strokeColor=#6D1F00;" edge="1" parent="1" source="cx52iR73xByLYHe5iGXJ-6" target="cx52iR73xByLYHe5iGXJ-28">
          <mxGeometry relative="1" as="geometry" />
        </mxCell>
        <mxCell id="0-llB7Le6B-mR33mn91j-44" value="Consulta&lt;br&gt;sobre&amp;nbsp;&lt;br&gt;datos" style="edgeLabel;html=1;align=center;verticalAlign=middle;resizable=0;points=[];" vertex="1" connectable="0" parent="0-llB7Le6B-mR33mn91j-41">
          <mxGeometry x="-0.4226" y="2" relative="1" as="geometry">
            <mxPoint as="offset" />
          </mxGeometry>
        </mxCell>
        <mxCell id="0-llB7Le6B-mR33mn91j-49" style="edgeStyle=orthogonalEdgeStyle;rounded=0;orthogonalLoop=1;jettySize=auto;html=1;exitX=0.25;exitY=0;exitDx=0;exitDy=0;exitPerimeter=0;entryX=1;entryY=0.5;entryDx=0;entryDy=0;" edge="1" parent="1" source="cx52iR73xByLYHe5iGXJ-6" target="0-llB7Le6B-mR33mn91j-48">
          <mxGeometry relative="1" as="geometry" />
        </mxCell>
        <mxCell id="0-llB7Le6B-mR33mn91j-50" value="Busqueda &lt;br&gt;en la web" style="edgeLabel;html=1;align=center;verticalAlign=middle;resizable=0;points=[];" vertex="1" connectable="0" parent="0-llB7Le6B-mR33mn91j-49">
          <mxGeometry x="-0.0578" y="3" relative="1" as="geometry">
            <mxPoint as="offset" />
          </mxGeometry>
        </mxCell>
        <mxCell id="0-llB7Le6B-mR33mn91j-51" style="edgeStyle=orthogonalEdgeStyle;rounded=0;orthogonalLoop=1;jettySize=auto;html=1;exitX=0;exitY=0.25;exitDx=0;exitDy=0;exitPerimeter=0;entryX=1;entryY=1;entryDx=0;entryDy=0;" edge="1" parent="1" source="cx52iR73xByLYHe5iGXJ-6" target="0-llB7Le6B-mR33mn91j-48">
          <mxGeometry relative="1" as="geometry">
            <mxPoint x="-10" y="640" as="targetPoint" />
            <Array as="points">
              <mxPoint x="100" y="530" />
              <mxPoint x="20" y="530" />
              <mxPoint x="20" y="528" />
            </Array>
          </mxGeometry>
        </mxCell>
        <mxCell id="0-llB7Le6B-mR33mn91j-52" value="analisis&amp;nbsp;&lt;br&gt;con&amp;nbsp;alguna&amp;nbsp;&lt;br&gt;herramienta" style="edgeLabel;html=1;align=center;verticalAlign=middle;resizable=0;points=[];" vertex="1" connectable="0" parent="0-llB7Le6B-mR33mn91j-51">
          <mxGeometry x="0.8986" y="-2" relative="1" as="geometry">
            <mxPoint x="78" y="14" as="offset" />
          </mxGeometry>
        </mxCell>
        <object placeholders="1" c4Name="AI" c4Type="Contenedor o instanciador" c4Description="IA de interaccion con el usuario y gestion de datos" label="&lt;font style=&quot;font-size: 16px&quot;&gt;&lt;b&gt;%c4Name%&lt;/b&gt;&lt;/font&gt;&lt;div&gt;[%c4Type%]&lt;/div&gt;&lt;br&gt;&lt;div&gt;&lt;font style=&quot;font-size: 11px&quot;&gt;&lt;font color=&quot;#cccccc&quot;&gt;%c4Description%&lt;/font&gt;&lt;/div&gt;" id="cx52iR73xByLYHe5iGXJ-6">
          <mxCell style="rounded=1;whiteSpace=wrap;html=1;labelBackgroundColor=none;fillColor=#1061B0;fontColor=#ffffff;align=center;arcSize=10;strokeColor=#0D5091;metaEdit=1;resizable=0;points=[[0.25,0,0],[0.5,0,0],[0.75,0,0],[1,0.25,0],[1,0.5,0],[1,0.75,0],[0.75,1,0],[0.5,1,0],[0.25,1,0],[0,0.75,0],[0,0.5,0],[0,0.25,0]];" parent="1" vertex="1">
            <mxGeometry x="100" y="610" width="240" height="120" as="geometry" />
          </mxCell>
        </object>
        <mxCell id="cx52iR73xByLYHe5iGXJ-43" style="edgeStyle=orthogonalEdgeStyle;rounded=0;orthogonalLoop=1;jettySize=auto;html=1;exitX=0;exitY=0.5;exitDx=0;exitDy=0;exitPerimeter=0;entryX=1;entryY=0.5;entryDx=0;entryDy=0;entryPerimeter=0;dashed=1;" parent="1" source="cx52iR73xByLYHe5iGXJ-8" target="cx52iR73xByLYHe5iGXJ-3" edge="1">
          <mxGeometry relative="1" as="geometry">
            <Array as="points">
              <mxPoint x="920" y="550" />
              <mxPoint x="920" y="560" />
            </Array>
          </mxGeometry>
        </mxCell>
        <mxCell id="cx52iR73xByLYHe5iGXJ-49" style="edgeStyle=orthogonalEdgeStyle;rounded=0;orthogonalLoop=1;jettySize=auto;html=1;exitX=0.25;exitY=1;exitDx=0;exitDy=0;exitPerimeter=0;entryX=1;entryY=0.35;entryDx=0;entryDy=0;entryPerimeter=0;fillColor=#1ba1e2;strokeColor=#006EAF;dashed=1;" parent="1" source="cx52iR73xByLYHe5iGXJ-8" target="cx52iR73xByLYHe5iGXJ-5" edge="1">
          <mxGeometry relative="1" as="geometry" />
        </mxCell>
        <mxCell id="cx52iR73xByLYHe5iGXJ-56" style="edgeStyle=orthogonalEdgeStyle;rounded=0;orthogonalLoop=1;jettySize=auto;html=1;exitX=0.5;exitY=1;exitDx=0;exitDy=0;exitPerimeter=0;entryX=1;entryY=0.55;entryDx=0;entryDy=0;entryPerimeter=0;fillColor=#d80073;strokeColor=#A50040;dashed=1;" parent="1" source="cx52iR73xByLYHe5iGXJ-8" target="cx52iR73xByLYHe5iGXJ-5" edge="1">
          <mxGeometry relative="1" as="geometry">
            <Array as="points">
              <mxPoint x="1210" y="770" />
              <mxPoint x="830" y="770" />
              <mxPoint x="830" y="776" />
            </Array>
          </mxGeometry>
        </mxCell>
        <mxCell id="0-llB7Le6B-mR33mn91j-10" style="edgeStyle=orthogonalEdgeStyle;rounded=0;orthogonalLoop=1;jettySize=auto;html=1;exitX=1;exitY=0.25;exitDx=0;exitDy=0;exitPerimeter=0;entryX=1;entryY=0.75;entryDx=0;entryDy=0;entryPerimeter=0;fillColor=#6a00ff;strokeColor=#3700CC;" edge="1" parent="1" source="cx52iR73xByLYHe5iGXJ-8" target="cx52iR73xByLYHe5iGXJ-5">
          <mxGeometry relative="1" as="geometry">
            <Array as="points">
              <mxPoint x="1480" y="520" />
              <mxPoint x="1480" y="800" />
            </Array>
          </mxGeometry>
        </mxCell>
        <mxCell id="0-llB7Le6B-mR33mn91j-20" style="edgeStyle=orthogonalEdgeStyle;rounded=0;orthogonalLoop=1;jettySize=auto;html=1;exitX=0.75;exitY=0;exitDx=0;exitDy=0;exitPerimeter=0;fillColor=#e3c800;strokeColor=#B09500;dashed=1;entryX=1;entryY=0.95;entryDx=0;entryDy=0;entryPerimeter=0;" edge="1" parent="1" source="cx52iR73xByLYHe5iGXJ-8" target="cx52iR73xByLYHe5iGXJ-5">
          <mxGeometry relative="1" as="geometry">
            <mxPoint x="1560" y="630" as="targetPoint" />
            <Array as="points">
              <mxPoint x="1270" y="470" />
              <mxPoint x="1560" y="470" />
              <mxPoint x="1560" y="824" />
            </Array>
          </mxGeometry>
        </mxCell>
        <object placeholders="1" c4Name="Youtube APi" c4Type="Software System" c4Description="Api de youtube" label="&lt;font style=&quot;font-size: 16px&quot;&gt;&lt;b&gt;%c4Name%&lt;/b&gt;&lt;/font&gt;&lt;div&gt;[%c4Type%]&lt;/div&gt;&lt;br&gt;&lt;div&gt;&lt;font style=&quot;font-size: 11px&quot;&gt;&lt;font color=&quot;#cccccc&quot;&gt;%c4Description%&lt;/font&gt;&lt;/div&gt;" id="cx52iR73xByLYHe5iGXJ-8">
          <mxCell style="rounded=1;whiteSpace=wrap;html=1;labelBackgroundColor=none;fillColor=#8C8496;fontColor=#ffffff;align=center;arcSize=10;strokeColor=#736782;metaEdit=1;resizable=0;points=[[0.25,0,0],[0.5,0,0],[0.75,0,0],[1,0.25,0],[1,0.5,0],[1,0.75,0],[0.75,1,0],[0.5,1,0],[0.25,1,0],[0,0.75,0],[0,0.5,0],[0,0.25,0]];" parent="1" vertex="1">
            <mxGeometry x="1090" y="490" width="240" height="120" as="geometry" />
          </mxCell>
        </object>
        <mxCell id="cx52iR73xByLYHe5iGXJ-31" style="edgeStyle=orthogonalEdgeStyle;rounded=0;orthogonalLoop=1;jettySize=auto;html=1;exitX=0.75;exitY=1;exitDx=0;exitDy=0;exitPerimeter=0;entryX=1;entryY=0.15;entryDx=0;entryDy=0;entryPerimeter=0;fillColor=#1ba1e2;strokeColor=#006EAF;dashed=1;" parent="1" source="cx52iR73xByLYHe5iGXJ-9" target="cx52iR73xByLYHe5iGXJ-5" edge="1">
          <mxGeometry relative="1" as="geometry">
            <Array as="points">
              <mxPoint x="870" y="728" />
            </Array>
          </mxGeometry>
        </mxCell>
        <mxCell id="cx52iR73xByLYHe5iGXJ-32" value="Metadatos&lt;br&gt;Canciones&lt;br&gt;locales" style="edgeLabel;html=1;align=center;verticalAlign=middle;resizable=0;points=[];" parent="cx52iR73xByLYHe5iGXJ-31" vertex="1" connectable="0">
          <mxGeometry x="0.1764" y="-3" relative="1" as="geometry">
            <mxPoint x="3" y="-325" as="offset" />
          </mxGeometry>
        </mxCell>
        <object placeholders="1" c4Name="User Pc" c4Type="Cliente de kivy" c4Description="Computadora del usuario" label="&lt;font style=&quot;font-size: 16px&quot;&gt;&lt;b&gt;%c4Name%&lt;/b&gt;&lt;/font&gt;&lt;div&gt;[%c4Type%]&lt;/div&gt;&lt;br&gt;&lt;div&gt;&lt;font style=&quot;font-size: 11px&quot;&gt;&lt;font color=&quot;#cccccc&quot;&gt;%c4Description%&lt;/font&gt;&lt;/div&gt;" id="cx52iR73xByLYHe5iGXJ-9">
          <mxCell style="rounded=1;whiteSpace=wrap;html=1;labelBackgroundColor=none;fillColor=#8C8496;fontColor=#ffffff;align=center;arcSize=10;strokeColor=#736782;metaEdit=1;resizable=0;points=[[0.25,0,0],[0.5,0,0],[0.75,0,0],[1,0.25,0],[1,0.5,0],[1,0.75,0],[0.75,1,0],[0.5,1,0],[0.25,1,0],[0,0.75,0],[0,0.5,0],[0,0.25,0]];" parent="1" vertex="1">
            <mxGeometry x="690" y="70" width="240" height="120" as="geometry" />
          </mxCell>
        </object>
        <mxCell id="cx52iR73xByLYHe5iGXJ-19" value="" style="edgeStyle=orthogonalEdgeStyle;rounded=0;orthogonalLoop=1;jettySize=auto;html=1;exitX=1;exitY=0.25;exitDx=0;exitDy=0;exitPerimeter=0;entryX=0;entryY=0.5;entryDx=0;entryDy=0;entryPerimeter=0;" parent="1" target="cx52iR73xByLYHe5iGXJ-7" edge="1">
          <mxGeometry relative="1" as="geometry">
            <mxPoint x="709.46" y="530.0000000000001" as="sourcePoint" />
            <mxPoint x="1069.46" y="350" as="targetPoint" />
            <Array as="points">
              <mxPoint x="1070" y="531" />
              <mxPoint x="1070" y="350" />
            </Array>
          </mxGeometry>
        </mxCell>
        <mxCell id="cx52iR73xByLYHe5iGXJ-22" value="solicitud &lt;br&gt;de&lt;br&gt;autorizacion" style="edgeLabel;html=1;align=center;verticalAlign=middle;resizable=0;points=[];" parent="cx52iR73xByLYHe5iGXJ-19" vertex="1" connectable="0">
          <mxGeometry x="-0.5588" y="1" relative="1" as="geometry">
            <mxPoint x="-38" y="1" as="offset" />
          </mxGeometry>
        </mxCell>
        <mxCell id="cx52iR73xByLYHe5iGXJ-23" style="edgeStyle=orthogonalEdgeStyle;rounded=0;orthogonalLoop=1;jettySize=auto;html=1;exitX=0;exitY=0.75;exitDx=0;exitDy=0;exitPerimeter=0;entryX=1;entryY=0.5;entryDx=0;entryDy=0;entryPerimeter=0;dashed=1;" parent="1" source="cx52iR73xByLYHe5iGXJ-7" target="cx52iR73xByLYHe5iGXJ-3" edge="1">
          <mxGeometry relative="1" as="geometry">
            <Array as="points">
              <mxPoint x="920" y="380" />
              <mxPoint x="920" y="560" />
            </Array>
          </mxGeometry>
        </mxCell>
        <mxCell id="cx52iR73xByLYHe5iGXJ-25" value="autorizacion" style="edgeLabel;html=1;align=center;verticalAlign=middle;resizable=0;points=[];" parent="cx52iR73xByLYHe5iGXJ-23" vertex="1" connectable="0">
          <mxGeometry x="0.5543" relative="1" as="geometry">
            <mxPoint x="-50" as="offset" />
          </mxGeometry>
        </mxCell>
        <mxCell id="0-llB7Le6B-mR33mn91j-14" value="Text" style="edgeLabel;html=1;align=center;verticalAlign=middle;resizable=0;points=[];" vertex="1" connectable="0" parent="cx52iR73xByLYHe5iGXJ-23">
          <mxGeometry x="0.5372" y="-2" relative="1" as="geometry">
            <mxPoint as="offset" />
          </mxGeometry>
        </mxCell>
        <mxCell id="cx52iR73xByLYHe5iGXJ-50" style="edgeStyle=orthogonalEdgeStyle;rounded=0;orthogonalLoop=1;jettySize=auto;html=1;exitX=0.25;exitY=1;exitDx=0;exitDy=0;exitPerimeter=0;entryX=1;entryY=0.35;entryDx=0;entryDy=0;entryPerimeter=0;fillColor=#1ba1e2;strokeColor=#006EAF;dashed=1;" parent="1" source="cx52iR73xByLYHe5iGXJ-7" target="cx52iR73xByLYHe5iGXJ-5" edge="1">
          <mxGeometry relative="1" as="geometry">
            <Array as="points">
              <mxPoint x="1150" y="450" />
              <mxPoint x="1040" y="450" />
              <mxPoint x="1040" y="752" />
            </Array>
          </mxGeometry>
        </mxCell>
        <mxCell id="cx52iR73xByLYHe5iGXJ-51" value="listas" style="edgeLabel;html=1;align=center;verticalAlign=middle;resizable=0;points=[];" parent="cx52iR73xByLYHe5iGXJ-50" vertex="1" connectable="0">
          <mxGeometry x="0.445" y="2" relative="1" as="geometry">
            <mxPoint x="106" y="-4" as="offset" />
          </mxGeometry>
        </mxCell>
        <mxCell id="cx52iR73xByLYHe5iGXJ-55" style="edgeStyle=orthogonalEdgeStyle;rounded=0;orthogonalLoop=1;jettySize=auto;html=1;exitX=0.5;exitY=1;exitDx=0;exitDy=0;exitPerimeter=0;entryX=1;entryY=0.56;entryDx=0;entryDy=0;entryPerimeter=0;fillColor=#d80073;strokeColor=#A50040;dashed=1;" parent="1" target="cx52iR73xByLYHe5iGXJ-5" edge="1">
          <mxGeometry relative="1" as="geometry">
            <Array as="points">
              <mxPoint x="1200" y="450" />
              <mxPoint x="1420" y="450" />
              <mxPoint x="1420" y="770" />
              <mxPoint x="830" y="770" />
              <mxPoint x="830" y="777" />
            </Array>
            <mxPoint x="1200" y="410" as="sourcePoint" />
            <mxPoint x="830" y="767.1999999999999" as="targetPoint" />
          </mxGeometry>
        </mxCell>
        <mxCell id="cx52iR73xByLYHe5iGXJ-57" value="Contenido de listas" style="edgeLabel;html=1;align=center;verticalAlign=middle;resizable=0;points=[];" parent="cx52iR73xByLYHe5iGXJ-55" vertex="1" connectable="0">
          <mxGeometry x="0.4465" y="4" relative="1" as="geometry">
            <mxPoint as="offset" />
          </mxGeometry>
        </mxCell>
        <mxCell id="0-llB7Le6B-mR33mn91j-9" style="edgeStyle=orthogonalEdgeStyle;rounded=0;orthogonalLoop=1;jettySize=auto;html=1;exitX=1;exitY=0.5;exitDx=0;exitDy=0;exitPerimeter=0;entryX=1;entryY=0.75;entryDx=0;entryDy=0;entryPerimeter=0;fillColor=#6a00ff;strokeColor=#3700CC;" edge="1" parent="1" source="cx52iR73xByLYHe5iGXJ-7" target="cx52iR73xByLYHe5iGXJ-5">
          <mxGeometry relative="1" as="geometry">
            <Array as="points">
              <mxPoint x="1480" y="350" />
              <mxPoint x="1480" y="800" />
            </Array>
          </mxGeometry>
        </mxCell>
        <mxCell id="0-llB7Le6B-mR33mn91j-11" value="Respuesta de datos de una cancion concreta" style="edgeLabel;html=1;align=center;verticalAlign=middle;resizable=0;points=[];" vertex="1" connectable="0" parent="0-llB7Le6B-mR33mn91j-9">
          <mxGeometry x="0.6179" y="3" relative="1" as="geometry">
            <mxPoint as="offset" />
          </mxGeometry>
        </mxCell>
        <mxCell id="0-llB7Le6B-mR33mn91j-21" style="edgeStyle=orthogonalEdgeStyle;rounded=0;orthogonalLoop=1;jettySize=auto;html=1;exitX=0.75;exitY=0;exitDx=0;exitDy=0;exitPerimeter=0;fillColor=#e3c800;strokeColor=#B09500;dashed=1;entryX=1;entryY=0.95;entryDx=0;entryDy=0;entryPerimeter=0;" edge="1" parent="1" source="cx52iR73xByLYHe5iGXJ-7" target="cx52iR73xByLYHe5iGXJ-5">
          <mxGeometry relative="1" as="geometry">
            <mxPoint x="1560" y="670" as="targetPoint" />
            <Array as="points">
              <mxPoint x="1270" y="270" />
              <mxPoint x="1560" y="270" />
              <mxPoint x="1560" y="824" />
            </Array>
          </mxGeometry>
        </mxCell>
        <mxCell id="0-llB7Le6B-mR33mn91j-22" value="DONE" style="edgeLabel;html=1;align=center;verticalAlign=middle;resizable=0;points=[];" vertex="1" connectable="0" parent="0-llB7Le6B-mR33mn91j-21">
          <mxGeometry x="-0.1749" relative="1" as="geometry">
            <mxPoint as="offset" />
          </mxGeometry>
        </mxCell>
        <object placeholders="1" c4Name="Spotify API" c4Type="Software System" c4Description="Api de comunicacion de spotify" label="&lt;font style=&quot;font-size: 16px&quot;&gt;&lt;b&gt;%c4Name%&lt;/b&gt;&lt;/font&gt;&lt;div&gt;[%c4Type%]&lt;/div&gt;&lt;br&gt;&lt;div&gt;&lt;font style=&quot;font-size: 11px&quot;&gt;&lt;font color=&quot;#cccccc&quot;&gt;%c4Description%&lt;/font&gt;&lt;/div&gt;" id="cx52iR73xByLYHe5iGXJ-7">
          <mxCell style="rounded=1;whiteSpace=wrap;html=1;labelBackgroundColor=none;fillColor=#8C8496;fontColor=#ffffff;align=center;arcSize=10;strokeColor=#736782;metaEdit=1;resizable=0;points=[[0.25,0,0],[0.5,0,0],[0.75,0,0],[1,0.25,0],[1,0.5,0],[1,0.75,0],[0.75,1,0],[0.5,1,0],[0.25,1,0],[0,0.75,0],[0,0.5,0],[0,0.25,0]];" parent="1" vertex="1">
            <mxGeometry x="1090" y="290" width="240" height="120" as="geometry" />
          </mxCell>
        </object>
        <mxCell id="0-llB7Le6B-mR33mn91j-1" style="edgeStyle=orthogonalEdgeStyle;rounded=0;orthogonalLoop=1;jettySize=auto;html=1;exitX=0.9;exitY=0;exitDx=0;exitDy=0;exitPerimeter=0;entryX=0.9;entryY=1;entryDx=0;entryDy=0;entryPerimeter=0;fillColor=#6a00ff;strokeColor=#3700CC;" edge="1" parent="1" source="cx52iR73xByLYHe5iGXJ-28" target="cx52iR73xByLYHe5iGXJ-5">
          <mxGeometry relative="1" as="geometry" />
        </mxCell>
        <mxCell id="0-llB7Le6B-mR33mn91j-5" value="Respuesta&lt;br&gt;Correlacion" style="edgeLabel;html=1;align=center;verticalAlign=middle;resizable=0;points=[];" vertex="1" connectable="0" parent="0-llB7Le6B-mR33mn91j-1">
          <mxGeometry x="-0.0704" y="-2" relative="1" as="geometry">
            <mxPoint x="1" y="-8" as="offset" />
          </mxGeometry>
        </mxCell>
        <mxCell id="0-llB7Le6B-mR33mn91j-29" style="edgeStyle=orthogonalEdgeStyle;rounded=0;orthogonalLoop=1;jettySize=auto;html=1;exitX=0.5;exitY=0;exitDx=0;exitDy=0;exitPerimeter=0;entryX=0.7;entryY=1;entryDx=0;entryDy=0;entryPerimeter=0;fillColor=#e3c800;strokeColor=#B09500;" edge="1" parent="1" source="cx52iR73xByLYHe5iGXJ-28" target="cx52iR73xByLYHe5iGXJ-5">
          <mxGeometry relative="1" as="geometry">
            <Array as="points">
              <mxPoint x="600" y="880" />
              <mxPoint x="628" y="880" />
            </Array>
          </mxGeometry>
        </mxCell>
        <mxCell id="0-llB7Le6B-mR33mn91j-30" value="DONE" style="edgeLabel;html=1;align=center;verticalAlign=middle;resizable=0;points=[];" vertex="1" connectable="0" parent="0-llB7Le6B-mR33mn91j-29">
          <mxGeometry x="0.1182" y="2" relative="1" as="geometry">
            <mxPoint x="-6" y="-8" as="offset" />
          </mxGeometry>
        </mxCell>
        <mxCell id="0-llB7Le6B-mR33mn91j-40" style="edgeStyle=orthogonalEdgeStyle;rounded=0;orthogonalLoop=1;jettySize=auto;html=1;exitX=0;exitY=0.25;exitDx=0;exitDy=0;exitPerimeter=0;entryX=0.75;entryY=1;entryDx=0;entryDy=0;entryPerimeter=0;fillColor=#a0522d;strokeColor=#6D1F00;dashed=1;" edge="1" parent="1" source="cx52iR73xByLYHe5iGXJ-28" target="cx52iR73xByLYHe5iGXJ-6">
          <mxGeometry relative="1" as="geometry" />
        </mxCell>
        <mxCell id="0-llB7Le6B-mR33mn91j-45" value="Respuesta&lt;br&gt;sobre&amp;nbsp;&lt;br&gt;datos" style="edgeLabel;html=1;align=center;verticalAlign=middle;resizable=0;points=[];" vertex="1" connectable="0" parent="0-llB7Le6B-mR33mn91j-40">
          <mxGeometry x="0.3561" y="-5" relative="1" as="geometry">
            <mxPoint as="offset" />
          </mxGeometry>
        </mxCell>
        <object placeholders="1" c4Type="Base de datos, cache " c4Container="Data base Temporal" c4Technology="e.g. Oracle Database 12" c4Description="base de datos temporalencargada de almacenar datos de las diferentes canciones pedidas a la APi y a User pc para tenerlas a mano" label="&lt;font style=&quot;font-size: 16px&quot;&gt;&lt;b&gt;%c4Type%&lt;/b&gt;&lt;/font&gt;&lt;div&gt;[%c4Container%:&amp;nbsp;%c4Technology%]&lt;/div&gt;&lt;br&gt;&lt;div&gt;&lt;font style=&quot;font-size: 11px&quot;&gt;&lt;font color=&quot;#E6E6E6&quot;&gt;%c4Description%&lt;/font&gt;&lt;/div&gt;" id="cx52iR73xByLYHe5iGXJ-28">
          <mxCell style="shape=cylinder3;size=5.0370370370370665;whiteSpace=wrap;html=1;boundedLbl=1;rounded=0;labelBackgroundColor=none;fillColor=#23A2D9;fontSize=12;fontColor=#ffffff;align=center;strokeColor=#0E7DAD;metaEdit=1;points=[[0,0.25,0,0,0],[0,0.5,0,0,0],[0,0.75,0,0,0],[0.1,0,0,0,0],[0.2,0,0,0,0],[0.3,0,0,0,0],[0.4,0,0,0,0],[0.5,0,0,0,0],[0.5,1,0,0,0],[0.6,0,0,0,0],[0.7,0,0,0,0],[0.8,0,0,0,0],[0.9,0,0,0,0],[1,0.25,0,0,0],[1,0.5,0,0,0],[1,0.75,0,0,0]];resizable=0;spacing=1;" parent="1" vertex="1">
            <mxGeometry x="480" y="910" width="240" height="120" as="geometry" />
          </mxCell>
        </object>
        <mxCell id="0-llB7Le6B-mR33mn91j-48" value="no definido pero la idea es que suceda" style="ellipse;whiteSpace=wrap;html=1;aspect=fixed;" vertex="1" parent="1">
          <mxGeometry x="-80" y="460" width="80" height="80" as="geometry" />
        </mxCell>
      </root>
    </mxGraphModel>
  </diagram>
</mxfile>
